<mxfile host="app.diagrams.net" modified="2022-03-19T13:22:09.094Z" agent="5.0 (Windows NT 10.0; Win64; x64) AppleWebKit/537.36 (KHTML, like Gecko) Chrome/99.0.4844.51 Safari/537.36" etag="8qbCLsHoHpv3YWswrbly" version="16.6.6" type="github">
  <diagram id="m-0ma7tffj1yWshXnC1w" name="Page-1">
    <mxGraphModel dx="1662" dy="794" grid="1" gridSize="10" guides="1" tooltips="1" connect="1" arrows="1" fold="1" page="1" pageScale="1" pageWidth="1600" pageHeight="1200" math="0" shadow="0">
      <root>
        <mxCell id="0" />
        <mxCell id="1" parent="0" />
        <UserObject label="" link="https://logodownload.org/wp-content/uploads/2018/03/nginx-logo-1.png" id="wTWTsYv-85-dh2ohFwzL-14">
          <mxCell style="whiteSpace=wrap;html=1;aspect=fixed;fontSize=18;" vertex="1" parent="1">
            <mxGeometry x="1229" y="220" width="310" height="310" as="geometry" />
          </mxCell>
        </UserObject>
        <mxCell id="wTWTsYv-85-dh2ohFwzL-3" value="" style="whiteSpace=wrap;html=1;aspect=fixed;fontSize=18;" vertex="1" parent="1">
          <mxGeometry x="600" y="180" width="510" height="510" as="geometry" />
        </mxCell>
        <mxCell id="wTWTsYv-85-dh2ohFwzL-20" style="edgeStyle=orthogonalEdgeStyle;rounded=0;orthogonalLoop=1;jettySize=auto;html=1;fontSize=18;" edge="1" parent="1" source="wTWTsYv-85-dh2ohFwzL-1" target="wTWTsYv-85-dh2ohFwzL-17">
          <mxGeometry relative="1" as="geometry" />
        </mxCell>
        <mxCell id="wTWTsYv-85-dh2ohFwzL-1" value="" style="sketch=0;aspect=fixed;html=1;points=[];align=center;image;fontSize=12;image=img/lib/mscae/Docker.svg;" vertex="1" parent="1">
          <mxGeometry x="780.73" y="210" width="158.54" height="130" as="geometry" />
        </mxCell>
        <mxCell id="wTWTsYv-85-dh2ohFwzL-5" style="edgeStyle=orthogonalEdgeStyle;rounded=0;orthogonalLoop=1;jettySize=auto;html=1;entryX=-0.005;entryY=0.462;entryDx=0;entryDy=0;entryPerimeter=0;fontSize=18;" edge="1" parent="1" source="wTWTsYv-85-dh2ohFwzL-2" target="wTWTsYv-85-dh2ohFwzL-1">
          <mxGeometry relative="1" as="geometry" />
        </mxCell>
        <mxCell id="wTWTsYv-85-dh2ohFwzL-2" value="&lt;font style=&quot;font-size: 18px&quot;&gt;&amp;gt; docker recurso opção&lt;/font&gt;" style="rounded=0;whiteSpace=wrap;html=1;" vertex="1" parent="1">
          <mxGeometry x="200" y="470" width="240.73" height="60" as="geometry" />
        </mxCell>
        <mxCell id="wTWTsYv-85-dh2ohFwzL-4" value="" style="shape=image;html=1;verticalAlign=top;verticalLabelPosition=bottom;labelBackgroundColor=#ffffff;imageAspect=0;aspect=fixed;image=https://cdn2.iconfinder.com/data/icons/boxicons-logos/24/bxl-docker-128.png;fontSize=18;" vertex="1" parent="1">
          <mxGeometry x="256.37" y="340" width="128" height="128" as="geometry" />
        </mxCell>
        <mxCell id="wTWTsYv-85-dh2ohFwzL-6" value="Cliente do Docker" style="text;html=1;align=center;verticalAlign=middle;resizable=0;points=[];autosize=1;strokeColor=none;fillColor=none;fontSize=18;" vertex="1" parent="1">
          <mxGeometry x="240.37" y="310" width="160" height="30" as="geometry" />
        </mxCell>
        <mxCell id="wTWTsYv-85-dh2ohFwzL-7" value="Host do Docker (daemon)" style="text;html=1;align=center;verticalAlign=middle;resizable=0;points=[];autosize=1;strokeColor=none;fillColor=none;fontSize=18;" vertex="1" parent="1">
          <mxGeometry x="750" y="130" width="220" height="30" as="geometry" />
        </mxCell>
        <mxCell id="wTWTsYv-85-dh2ohFwzL-10" value="" style="rounded=0;whiteSpace=wrap;html=1;fontSize=18;fillColor=#E6E6E6;rotation=90;" vertex="1" parent="1">
          <mxGeometry x="630" y="455" width="210" height="140" as="geometry" />
        </mxCell>
        <mxCell id="wTWTsYv-85-dh2ohFwzL-11" value="" style="rounded=0;whiteSpace=wrap;html=1;fontSize=18;fillColor=#E6E6E6;rotation=90;" vertex="1" parent="1">
          <mxGeometry x="880" y="455" width="210" height="140" as="geometry" />
        </mxCell>
        <mxCell id="wTWTsYv-85-dh2ohFwzL-12" value="Containers" style="text;html=1;align=center;verticalAlign=middle;resizable=0;points=[];autosize=1;strokeColor=none;fillColor=none;fontSize=18;" vertex="1" parent="1">
          <mxGeometry x="685" y="380" width="100" height="30" as="geometry" />
        </mxCell>
        <mxCell id="wTWTsYv-85-dh2ohFwzL-13" value="Imagens" style="text;html=1;align=center;verticalAlign=middle;resizable=0;points=[];autosize=1;strokeColor=none;fillColor=none;fontSize=18;" vertex="1" parent="1">
          <mxGeometry x="945" y="380" width="80" height="30" as="geometry" />
        </mxCell>
        <mxCell id="wTWTsYv-85-dh2ohFwzL-15" value="Registry (Docker Hub)" style="text;html=1;align=center;verticalAlign=middle;resizable=0;points=[];autosize=1;strokeColor=none;fillColor=none;fontSize=18;" vertex="1" parent="1">
          <mxGeometry x="1289" y="180" width="190" height="30" as="geometry" />
        </mxCell>
        <mxCell id="wTWTsYv-85-dh2ohFwzL-16" value="" style="shape=image;html=1;verticalAlign=top;verticalLabelPosition=bottom;labelBackgroundColor=#ffffff;imageAspect=0;aspect=fixed;image=https://cdn0.iconfinder.com/data/icons/social-media-2127/48/social_media_social_media_logo_docker-128.png;fontSize=18;fillColor=#E6E6E6;" vertex="1" parent="1">
          <mxGeometry x="1329" y="70" width="128" height="128" as="geometry" />
        </mxCell>
        <mxCell id="wTWTsYv-85-dh2ohFwzL-21" style="edgeStyle=orthogonalEdgeStyle;rounded=0;orthogonalLoop=1;jettySize=auto;html=1;entryX=0.5;entryY=0;entryDx=0;entryDy=0;fontSize=18;exitX=0.5;exitY=1;exitDx=0;exitDy=0;" edge="1" parent="1" source="wTWTsYv-85-dh2ohFwzL-17" target="wTWTsYv-85-dh2ohFwzL-11">
          <mxGeometry relative="1" as="geometry" />
        </mxCell>
        <mxCell id="wTWTsYv-85-dh2ohFwzL-17" value="" style="shape=image;verticalLabelPosition=bottom;labelBackgroundColor=default;verticalAlign=top;aspect=fixed;imageAspect=0;image=https://logodownload.org/wp-content/uploads/2018/03/nginx-logo-1.png;" vertex="1" parent="1">
          <mxGeometry x="1280" y="235.39999999999995" width="69" height="79.2" as="geometry" />
        </mxCell>
        <mxCell id="wTWTsYv-85-dh2ohFwzL-18" value="" style="shape=image;verticalLabelPosition=bottom;labelBackgroundColor=default;verticalAlign=top;aspect=fixed;imageAspect=0;image=https://upload.wikimedia.org/wikipedia/commons/thumb/e/e9/Jenkins_logo.svg/1200px-Jenkins_logo.svg.png;" vertex="1" parent="1">
          <mxGeometry x="1410" y="260.2" width="71.62" height="98.79" as="geometry" />
        </mxCell>
        <mxCell id="wTWTsYv-85-dh2ohFwzL-19" value="" style="shape=image;verticalLabelPosition=bottom;labelBackgroundColor=default;verticalAlign=top;aspect=fixed;imageAspect=0;image=https://upload.wikimedia.org/wikipedia/commons/thumb/9/93/Wordpress_Blue_logo.png/1200px-Wordpress_Blue_logo.png;" vertex="1" parent="1">
          <mxGeometry x="1329" y="365.00000000000006" width="90" height="90" as="geometry" />
        </mxCell>
        <mxCell id="wTWTsYv-85-dh2ohFwzL-22" value="" style="shape=image;verticalLabelPosition=bottom;labelBackgroundColor=default;verticalAlign=top;aspect=fixed;imageAspect=0;image=https://logodownload.org/wp-content/uploads/2018/03/nginx-logo-1.png;" vertex="1" parent="1">
          <mxGeometry x="963.22" y="455" width="43.56" height="50" as="geometry" />
        </mxCell>
        <mxCell id="wTWTsYv-85-dh2ohFwzL-24" value="" style="shape=image;verticalLabelPosition=bottom;labelBackgroundColor=default;verticalAlign=top;aspect=fixed;imageAspect=0;image=https://upload.wikimedia.org/wikipedia/commons/thumb/e/e9/Jenkins_logo.svg/1200px-Jenkins_logo.svg.png;" vertex="1" parent="1">
          <mxGeometry x="959.66" y="535" width="47.12" height="65" as="geometry" />
        </mxCell>
        <mxCell id="wTWTsYv-85-dh2ohFwzL-25" value="Container 2" style="sketch=0;outlineConnect=0;fontColor=#232F3E;gradientColor=none;strokeColor=#232F3E;fillColor=#ffffff;dashed=0;verticalLabelPosition=bottom;verticalAlign=top;align=center;html=1;fontSize=12;fontStyle=0;aspect=fixed;shape=mxgraph.aws4.resourceIcon;resIcon=mxgraph.aws4.container_1;" vertex="1" parent="1">
          <mxGeometry x="700" y="430" width="60" height="60" as="geometry" />
        </mxCell>
        <mxCell id="wTWTsYv-85-dh2ohFwzL-26" value="Container 2" style="sketch=0;outlineConnect=0;fontColor=#232F3E;gradientColor=none;strokeColor=#232F3E;fillColor=#ffffff;dashed=0;verticalLabelPosition=bottom;verticalAlign=top;align=center;html=1;fontSize=12;fontStyle=0;aspect=fixed;shape=mxgraph.aws4.resourceIcon;resIcon=mxgraph.aws4.container_1;" vertex="1" parent="1">
          <mxGeometry x="700" y="530" width="60" height="60" as="geometry" />
        </mxCell>
        <mxCell id="wTWTsYv-85-dh2ohFwzL-27" value="" style="outlineConnect=0;dashed=0;verticalLabelPosition=bottom;verticalAlign=top;align=center;html=1;shape=mxgraph.aws3.ec2_compute_container;fillColor=#F58534;gradientColor=none;fontSize=18;" vertex="1" parent="1">
          <mxGeometry x="980" y="310" width="60" height="34.5" as="geometry" />
        </mxCell>
      </root>
    </mxGraphModel>
  </diagram>
</mxfile>
